<?xml version="1.0" encoding="UTF-8"?>
<!DOCTYPE svg PUBLIC "-//W3C//DTD SVG 1.1//EN" "http://www.w3.org/Graphics/SVG/1.1/DTD/svg11.dtd">
<!-- Creator: CorelDRAW 2021 (64-Bit Evaluation Version) -->
<svg xmlns="http://www.w3.org/2000/svg" xml:space="preserve" width="69.4377mm" height="27.0276mm" version="1.1" style="shape-rendering:geometricPrecision; text-rendering:geometricPrecision; image-rendering:optimizeQuality; fill-rule:evenodd; clip-rule:evenodd"
viewBox="0 0 1023 398.19"
 xmlns:xlink="http://www.w3.org/1999/xlink"
 xmlns:xodm="http://www.corel.com/coreldraw/odm/2003">
 <defs>
  <style type="text/css">
   <![CDATA[
    .fil3 {fill:#034C42}
    .fil2 {fill:#095E51}
    .fil0 {fill:#118D7B}
    .fil1 {fill:#FCFCFC}
   ]]>
  </style>
 </defs>
 <g id="Layer_x0020_1">
  <metadata id="CorelCorpID_0Corel-Layer"/>
  <g id="_1952984511792">
   <path class="fil0" d="M112.88 267.68c2.15,-3.64 1.11,-9.91 1.05,-14.18l0.39 -99.89c1.71,9.2 1.34,110.86 -0.54,114.51 -4.08,2.4 -39.23,2.4 -44.31,0.46 -1.52,-1.14 -1.55,-4.43 -1.61,-5.05l0.04 -18.76c-0.02,-53.04 -1.44,-120.82 0.36,-170.45 7.55,-1.12 15.74,-0.73 23.41,-0.75 9.19,-0.03 14.83,-2.08 20.56,3.6 2.83,2.34 2.61,3.62 5.43,6.86 2.64,3.04 2.38,3.65 4.82,6.42 4.42,5.03 6.68,8.16 10.71,13 3.3,3.59 6,8.33 9.89,12.54 7.94,7.52 31.12,40.16 38.22,47.93l14.47 18.47 0.68 0.8 5.47 4.51c-0.17,-18.33 -1.03,-38.22 -0.95,-57.69 0.06,-15.79 -1.41,-41.99 0.67,-56.31l44.79 0.62 -0.57 194.72c-9.68,0.65 -19.81,0.25 -29.54,0.2 -9.93,-0.05 -7.48,0.39 -16.62,-11.36l-4.67 -6.7c-1.29,-1.17 -3.6,-3.74 -5.29,-5.84 -2.68,-3.32 -0.98,-2.98 -5.02,-6.39l-14.83 -18.65 -25.52 -31.86c-1.83,-2.16 -2.46,-2.88 -4.63,-5.41 -1.77,-2.06 -1.42,-2.45 -3.73,-5.05 -2.14,-2.65 -6.67,-10.33 -9.94,-12.58 -2.23,-2.87 -1.94,-3.37 -4.86,-6.21 -2.8,-2.72 -2.78,-3.48 -5.17,-5.48 -2.55,-1.36 -1.72,-0.71 -2.74,-3.74l-0.43 117.71zm-96.3 -239.96c-2.79,3.09 -3.39,4.39 -4.88,7.38 -12.68,11.29 -8.91,46.94 -8.84,64.97l0 147.19c-0.07,11.48 -0.87,26.38 0.17,37.49 1.37,14.6 5.01,16.09 9.91,26.83 1.41,4.19 1.14,3.36 4.29,6.78l0.85 0.87c3.7,2.87 6.11,5.17 10.42,6.62 1.18,1.36 1.13,0.82 1.7,3.6l-0.63 65.06c4.15,-2.9 27.92,-24.68 29.82,-29.86l2.94 -0.91 0.81 -2.8c4.85,-1.98 9.88,-8 13.57,-12.16 2.26,-0.62 -0.16,0.54 2.13,-1l6.29 -6.03c12.48,-12.66 10.54,-8.42 40.23,-8.42l129.77 0.04c15.38,-0 31.31,-6.21 41.55,-15.89 3.39,-3.21 2.7,-1.66 2.48,-5.36 14.79,-23.9 11.59,-30.29 11.52,-61.12l-0.08 -140.95c0.23,-22.14 2.47,-46.95 -3.67,-67.36 -0.05,-2.1 0.4,-1.28 -0.37,-2.84 -1.08,-2.18 -0.48,-0.78 -1.58,-1.74l-1.11 -1.63c-0.14,-0.22 -0.37,-0.57 -0.52,-0.8l-6.68 -8.42c-2.7,-2.91 -6.31,-6.01 -9.49,-8.27 -6.71,-12.14 -54.26,-8.73 -64.53,-8.73l-149.68 0c-13.92,0 -23.89,-0.8 -34.81,2.61 -6.41,2 -16.29,6.12 -20.33,12.05 -1.51,2.22 -0.93,0.76 -1.24,2.8z"/>
   <path class="fil1" d="M825.13 353.28l41.16 0 33.68 -112.26c0.17,0.26 0.34,0.4 0.4,0.85l30.52 99.21c4.31,15.77 -1.9,12.21 43.92,12.21l42.41 -154.67 -38.67 0c0,7.83 -9.75,42.39 -12.22,51.4l-12.73 52.13c-3.96,-5.7 -29.87,-100.34 -29.94,-103.53l-44.91 0c-0.39,4.7 -2.38,8.82 -3.59,12.62l-26.34 88.41c-4.27,-3.12 -12.56,-43.97 -13.97,-49.64 -1.98,-7.94 -4.09,-16.34 -6.24,-24.95 -1.52,-6.08 -5.84,-19.89 -5.99,-26.45l-38.67 0c0.71,8.6 40.61,148.05 41.16,154.67z"/>
   <path class="fil1" d="M430.96 353.28l34.93 0 0 -97.29c3.77,2.76 32.48,44.53 35.67,49.15 6.01,8.71 11.9,16.07 17.73,24.68 2.43,3.59 14.28,23.47 18.94,23.47l34.93 0 0 -154.67 -34.93 0 0 99.79c-4.04,-2.7 -31.21,-42.89 -36.18,-49.89l-31.64 -44.45c-2,-3.01 -2.29,-5.45 -5.77,-5.45l-33.68 0 0 154.67z"/>
   <path class="fil1" d="M687.91 328.34c-27.38,0 -47.4,-19.75 -47.4,-46.15l0 -12.47c0,-38.16 35.88,-54.08 68.46,-42.27 7.15,2.59 9.85,5.05 15,9.95 20,19 22.23,90.95 -36.06,90.95zm-86.07 -57.38c0,15.61 0.25,28.63 7.12,42.77 11.89,24.47 40.49,42.05 70.21,42.05 29.2,0 51.43,-1.21 73.51,-22.54 23.84,-23.03 27.87,-60.62 16.31,-89.74 -4.85,-12.23 -7.68,-15.03 -15.85,-24.07 -6.36,-7.03 -14.97,-12.52 -23.7,-16.21 -30.12,-12.73 -80.11,-10.07 -104.87,14.39 -12.72,12.56 -22.74,28.67 -22.74,53.35z"/>
   <path class="fil1" d="M429.71 157.45l31.18 0 0 -97.29 57.24 92.45c4.63,7.88 6.05,4.85 35.07,4.85l0 -154.67 -29.94 0 0 99.79c-2.81,-2.06 -29.33,-46.24 -31.91,-50.42l-15.57 -25.6c-17.56,-29.53 -9.5,-23.77 -46.08,-23.77l0 154.67z"/>
   <path class="fil1" d="M906.2 80.11c0,-23.43 11.19,-51.14 36.17,-51.14 15.54,0 28.34,0.1 38.94,15.94 11.45,17.11 10.91,50.65 0.17,69.31 -12.95,22.5 -50.96,23.07 -65.85,1.36 -5.37,-7.82 -9.43,-22.92 -9.43,-35.47zm-32.43 -7.48c0,19.95 -1.13,26.17 6.22,44.93 4.39,11.2 10.58,18.22 18.98,25.93 2.24,2.06 2.34,2.37 4.78,3.95 23.28,15.1 52.58,16.28 78.03,5.76 9.52,-3.94 15.41,-9.72 22.23,-16.44 21.38,-21.06 22.77,-63.45 13.71,-89.57 -3.78,-10.88 -7.54,-16.69 -14.49,-24.18 -1.07,-1.16 -0.69,-0.84 -1.76,-1.99l-1.84 -1.9c-38.01,-36.7 -125.86,-20.92 -125.86,53.51z"/>
   <polygon class="fil1" points="584.38,157.45 701.64,157.45 701.64,130.01 616.81,130.01 616.81,90.09 692.9,90.09 692.9,62.65 616.81,62.65 616.81,30.22 697.89,30.22 697.89,2.78 584.38,2.78 "/>
   <path class="fil1" d="M720.35 78.86l0 6.24c0,87.3 116.3,102.75 134.72,23.7 -2.85,-1.37 -11.82,-3.79 -15.12,-4.84 -5.59,-1.78 -11.24,-2.82 -16.07,-5.14 -10.79,46.31 -51.52,34.85 -61.9,18.24 -12.01,-19.2 -16.28,-88.09 25.73,-88.09 10.7,0 18.06,-0.03 26.51,8.41 3.91,3.9 7,10.45 8.41,16.53l32.43 -7.48c-4.58,-9.54 -6.22,-22.01 -20.82,-32.81 -41.42,-30.64 -113.89,-9.88 -113.89,65.24z"/>
   <path class="fil0" d="M373.41 10.26l-0.22 0 -0.51 82.32c-0.23,27.68 -0.23,55.89 -0.01,83.57 0.43,55.02 1.36,112.98 -0.74,167.58 6.69,-2.26 5.18,0.89 5.87,-5.32l-0 -242.1c-0.1,-25.59 -2.22,-61.81 0.24,-86.06l-4.63 -0.01z"/>
   <path class="fil2" d="M373.41 10.26l4.63 0.01c-2.46,24.25 -0.34,60.47 -0.24,86.06l0 242.1c-0.7,6.2 0.82,3.06 -5.87,5.32 2.1,-54.6 1.17,-112.57 0.74,-167.58 -0.22,-27.68 -0.22,-55.89 0.01,-83.57l0.51 -82.32c-3.91,3.64 -2.11,13.51 -2.11,18.71l0 315.58 7.49 0c0.13,-5.87 1.28,-10.74 1.25,-18.71l-0 -315.59 -6.4 0z"/>
   <path class="fil2" d="M12.94 311.57c-4.9,-10.74 -8.54,-12.23 -9.91,-26.83 -1.04,-11.11 -0.24,-26.01 -0.17,-37.49l-0 -147.19c-0.06,-18.03 -3.84,-53.67 8.84,-64.97 -3.02,-0.13 -2.59,-3.53 -8.12,10.55 -5.58,14.23 -2.96,110.67 -2.96,128.01l0.29 111.97c0.55,4.11 4.78,20.65 8.46,23.99 2.3,2.09 -0.21,0.91 3.57,1.95z"/>
   <path class="fil3" d="M112.88 267.68l-43.66 -0.49 0 -192.07 38.32 0.34c0.35,0.08 0.66,0.17 1,0.26l3.69 1.43c-5.73,-5.68 -11.37,-3.63 -20.56,-3.6 -7.68,0.02 -15.87,-0.37 -23.41,0.75 -1.8,49.63 -0.38,117.41 -0.36,170.45l-0.04 18.76c0.07,0.62 0.09,3.91 1.61,5.05 5.08,1.94 40.23,1.94 44.31,-0.46 1.88,-3.65 2.25,-105.31 0.54,-114.51l-0.39 99.89c0.06,4.27 1.1,10.54 -1.05,14.18z"/>
   <path class="fil3" d="M196.45 183.19c1.05,4.62 2.79,5.62 6.24,7.93l0 -116.01 42.41 0 0 192.09c-9.17,0 -18.34,-0.03 -27.51,0.06 -17.23,0.17 -8.14,-6.75 -17.89,-9.41 9.14,11.75 6.69,11.3 16.62,11.36 9.73,0.05 19.86,0.45 29.54,-0.2l0.57 -194.72 -44.79 -0.62c-2.08,14.32 -0.61,40.52 -0.67,56.31 -0.07,19.47 0.79,39.36 0.95,57.69l-5.47 -4.51z"/>
   <path class="fil2" d="M299.16 312.12c4.21,-1.97 5.18,-3.11 8.33,-9.96 1.78,-3.86 3.07,-8.18 4.1,-13.36 0.89,-4.52 2.47,-217.78 0.58,-232.09 -0.08,-0.56 -0.98,-5.62 -1.41,-7.29l-3.83 -6.72c6.14,20.41 3.9,45.22 3.67,67.36l0.08 140.95c0.07,30.83 3.26,37.22 -11.52,61.12z"/>
   <path class="fil2" d="M59.39 364.65c-1.89,5.18 -25.66,26.96 -29.82,29.86l0.63 -65.06c-0.57,-2.78 -0.52,-2.24 -1.7,-3.6l-0.46 72.34 24.65 -24.01c8.59,-8.57 6.79,-4.74 6.69,-9.53z"/>
   <path class="fil3" d="M195.77 182.4l-14.47 -18.47c-7.1,-7.77 -30.29,-40.42 -38.22,-47.93 0.51,3.5 -0.44,2.13 5.07,8.69 2.52,3 4.29,5.16 6.8,8.17l23.1 29.29c4.49,5.23 12.47,17.54 17.73,20.26z"/>
   <path class="fil3" d="M169.89 220.29c-0.59,-5.71 -11.86,-17.18 -15.51,-22.02 -3.2,-4.25 -5.15,-6.15 -8.33,-10.38 -1.93,-2.57 -2.72,-3.05 -4.47,-5.51 -2.83,-3.97 -1.85,-3.33 -5.56,-4.41 2.31,2.61 1.96,2.99 3.73,5.05 2.16,2.53 2.8,3.25 4.63,5.41l25.52 31.86z"/>
   <path class="fil3" d="M133.2 103.44c-4.03,-4.84 -6.29,-7.97 -10.71,-13 -2.43,-2.77 -2.18,-3.38 -4.82,-6.42 -2.82,-3.24 -2.6,-4.52 -5.43,-6.86 -0.89,4.04 4.72,7.82 9.6,13.95 4.91,6.16 5.86,10.12 11.36,12.34z"/>
   <path class="fil3" d="M304.97 38.11c-0.97,-4.82 -3.5,-8.19 -6.52,-11.36 -3.33,-3.51 -6.06,-6.53 -11.28,-7.77 3.18,2.27 6.79,5.36 9.49,8.27l6.68 8.42c0.16,0.23 0.38,0.58 0.52,0.8l1.11 1.63z"/>
   <path class="fil3" d="M184.72 238.94c-0.22,-3.81 1.65,-1.15 -6.03,-10.09l-5.57 -6.91c-3.06,-2.42 -0.7,-0.75 -3.22,-1.65l14.83 18.65z"/>
   <path class="fil3" d="M126.08 165.39c-0.24,-4.57 -0.52,-3.2 -3.71,-7.46 -0.28,-0.38 -2.2,-2.79 -2.22,-2.82 -2.38,-2.03 -1.24,-1.65 -4.1,-1.41 2.39,2 2.37,2.76 5.17,5.48 2.92,2.84 2.63,3.34 4.86,6.21z"/>
   <path class="fil3" d="M195.03 251.17c-0.73,-3.93 -1.37,-3.57 -4.06,-7.16 -0.7,-0.94 -1.52,-2.11 -2.22,-2.76 -3.03,-2.8 -1.33,-1.34 -4.03,-2.31 4.03,3.41 2.34,3.07 5.02,6.39 1.69,2.1 4.01,4.67 5.29,5.84z"/>
   <path class="fil3" d="M136.02 177.97c0.91,-4.61 1.96,-0.11 -3.67,-7.56 -0.66,-0.87 -1.59,-2.17 -2.22,-2.76 -3.22,-2.95 -1.35,-1.34 -4.05,-2.26 3.27,2.24 7.8,9.92 9.94,12.58z"/>
   <path class="fil3" d="M143.08 115.99c-3.89,-4.22 -6.59,-8.95 -9.89,-12.54 0.47,4.3 0.9,3.44 3.87,7.36 0.91,1.21 1.22,1.78 2.24,2.75 2.43,2.31 1.37,1.34 3.77,2.43z"/>
   <path class="fil2" d="M63.14 360.94c3.27,0.04 2.37,1.5 10.79,-7.88 2.48,-2.76 1.27,-1.13 2.78,-4.28 -3.69,4.16 -8.72,10.18 -13.57,12.16z"/>
   <path class="fil3" d="M28.5 325.85c-4.31,-1.45 -6.72,-3.74 -10.42,-6.62 1.48,2.63 1.4,2.89 4.18,4.97 0.32,0.24 1.89,1.37 2.23,1.5 3.29,1.22 -0.7,1.24 4.01,0.15z"/>
   <path class="fil2" d="M11.69 35.1c1.5,-2.99 2.09,-4.28 4.88,-7.38 -4.84,2.14 -5.69,1.73 -4.88,7.38z"/>
   <path class="fil2" d="M116.05 153.7c1.01,-6.24 0.74,-2.42 -0.53,-3.71 -1.94,-1.97 0.35,-0.91 -2.21,-0.03 1.02,3.03 0.19,2.37 2.74,3.74z"/>
   <path class="fil3" d="M199.7 257.87c0.73,-4.31 -2.02,-5.28 -4.67,-6.7l4.67 6.7z"/>
   <path class="fil3" d="M17.23 318.36c-3.15,-3.43 -2.88,-2.59 -4.29,-6.78 -1.66,4.28 1.3,5.13 4.29,6.78z"/>
   <path class="fil2" d="M59.39 364.65c4.12,0.12 1.09,1.86 3.1,-0.63 2.28,-2.83 0.74,2.16 0.65,-3.07l-0.81 2.8 -2.94 0.91z"/>
  </g>
 </g>
</svg>
